# xmcd
#
# Track frame offsets: 
#        150
#        5892
#        19072
#        32975
#        50670
#        65850
#        86785
#        108107
#        124602
#        141977
#        152032
#        165572
#        182010
#        192625
#        223995
#        242075
#        258917
#        271152
#        284522
#        296355
#        308817
#        321915
#
# Disc length: 4480 seconds
#
# Revision: 0
# Processed by: cddbd v1.5.1PL0 Copyright (c) Steve Scherf et al.
# Submitted via: ExactAudioCopy v0.95a5
#
DISCID=54117e16
DTITLE=Various Artist - More Living Finnish Blues
DYEAR=1992
DGENRE=Blues
TTITLE0=Slim Allan and The Aces-Go-Go
TTITLE1=The Dynaflows-Nothing But Love
TTITLE2=Bockhill Special-Mellow Saxophone
TTITLE3=Houserockin' Fenders-Hard Workin' Woman
TTITLE4=Keystone Cops-Dentist Blues
TTITLE5=Hot Pants-Wanna Make Love To You
TTITLE6=J.Leino and The Blues Guys-Can't Trust Your Neighbor
TTITLE7=Big J. and The Crowers-Tell Me What's The Reason
TTITLE8=Deep Blue Divers-Honey,What's Your Name
TTITLE9=Downhome Boys-Break 'Em Down
TTITLE10=One O'Clock Humph-I'm Coming Home
TTITLE11=Pekka Kokkonen Blues Band-Takin' Care Of Business
TTITLE12=The Rhythm Hogs_HiYo, My Silver's Gone
TTITLE13=Kingston Mines Blues Gang-First Time I Met The Blues
TTITLE14=Chicago Overcoat-Mean Old Rider
TTITLE15=Hojas-Greyhound Bus Blues
TTITLE16=Fullhouse-Mean Old World
TTITLE17=Honey B and T-Bones-Comin' Home
TTITLE18=Tortille Flat-Red Headed Woman
TTITLE19=Gyan Dookie and Telecaster Combo-Be Careful
TTITLE20=Sir henrik's Hot Shots-Like I Did Before
TTITLE21=Big Town Playboys-San_Ho_Zay
EXTD=
EXTT0=
EXTT1=
EXTT2=
EXTT3=
EXTT4=
EXTT5=
EXTT6=
EXTT7=
EXTT8=
EXTT9=
EXTT10=
EXTT11=
EXTT12=
EXTT13=
EXTT14=
EXTT15=
EXTT16=
EXTT17=
EXTT18=
EXTT19=
EXTT20=
EXTT21=
PLAYORDER=
